<svg width="100" height="192" viewBox="0 0 100 192" fill="none" xmlns="http://www.w3.org/2000/svg">
<path d="M2 2C10.4816 5.02954 17.1271 10.9361 23.8027 16.8357C35.5337 27.2028 46.2415 38.2774 54.7121 51.4742C60.8659 61.0616 63.8451 70.4257 54.1803 78.6288C44.1336 87.156 25.7784 67.3932 36.2994 59.4881C49.1632 49.8228 67.4861 63.8213 76.4484 72.4031C92.5347 87.8066 97.7193 105.335 97.7193 126.977C97.7193 145.053 93.7278 164.431 82.032 178.836C79.5508 181.892 75.1967 187.906 71.3965 189.168" stroke="white" stroke-width="3" stroke-linecap="round"/>
<path d="M70.0525 189.056C69.9474 188.009 69.2036 187.182 69.1183 186.119C69.0364 185.099 69.0318 184.116 68.8157 183.104C68.354 180.942 68.3946 178.903 68.3946 176.68C68.3946 173.685 67.9209 170.762 67.9209 167.817" stroke="white" stroke-width="3" stroke-linecap="round"/>
<path d="M70.5254 190C71.4477 189.364 72.9528 189.338 74.0255 189.305C76.6007 189.226 79.0284 188.802 81.552 188.296C84.0032 187.804 86.1352 186.696 88.6443 186.696C90.4552 186.696 92.0106 186.099 93.7497 185.752C95.1666 185.47 96.5604 185.516 97.9999 185.516" stroke="white" stroke-width="3" stroke-linecap="round"/>
</svg>
