<svg width="1000" height="1000" viewBox="0 0 1000 1000" fill="none" xmlns="http://www.w3.org/2000/svg">
<path opacity="0.1" d="M839.766 568.277C829.105 621.796 806.06 672.076 772.476 715.089C738.892 758.102 695.703 792.653 646.366 815.975C597.03 839.297 542.918 850.742 488.364 849.393C433.809 848.045 380.329 833.94 332.205 808.209C284.081 782.478 242.652 745.836 211.234 701.216C179.816 656.596 159.283 605.24 151.279 551.259C143.276 497.278 148.024 442.173 165.144 390.357C182.263 338.541 211.279 291.454 249.866 252.866" stroke="white"/>
<path opacity="0.1" d="M894.98 534.811C890.409 587.074 875.588 637.926 851.364 684.462C827.141 730.997 793.988 772.306 753.8 806.03C713.611 839.753 667.174 865.231 617.139 881.008C567.105 896.785 514.453 902.552 462.189 897.98C409.926 893.409 359.074 878.588 312.538 854.364C266.003 830.141 224.694 796.988 190.97 756.8C157.247 716.611 131.769 670.174 115.992 620.139C100.215 570.105 94.4481 517.453 99.0195 465.189C103.591 412.925 118.412 362.074 142.636 315.538C166.859 269.003 200.012 227.694 240.2 193.97C280.389 160.247 326.826 134.769 376.861 118.992C426.895 103.215 479.547 97.4481 531.811 102.02C584.075 106.591 634.926 121.412 681.462 145.636C727.997 169.859 769.306 203.012 803.03 243.2C836.753 283.389 862.231 329.826 878.008 379.861C893.785 429.895 899.552 482.547 894.98 534.811L894.98 534.811Z" stroke="white"/>
<path opacity="0.1" d="M887.489 724.877C844.937 800.298 781.505 861.822 704.82 902.051C628.135 942.28 541.462 959.502 455.222 951.647C368.983 943.791 286.848 911.191 218.695 857.768C150.541 804.345 99.2693 732.372 71.0451 650.504C42.8208 568.636 38.8454 480.358 59.5968 396.285C80.3482 312.211 124.943 235.922 188.019 176.589C251.095 117.256 329.967 77.4062 415.151 61.8306C500.336 46.2551 588.206 55.617 668.196 88.7909" stroke="white"/>
<path opacity="0.1" d="M987.346 609.519C966.715 701.324 920.573 785.434 854.233 852.164C787.893 918.893 704.054 965.528 612.371 986.696C520.689 1007.86 424.891 1002.71 336.012 971.814C247.133 940.922 168.787 885.554 109.997 812.086C51.2069 738.618 14.364 650.039 3.71134 556.549C-6.94127 463.06 9.02968 368.462 49.7848 283.652C90.54 198.841 154.422 127.267 234.073 77.1725C313.724 27.0778 405.905 0.499999 500 0.5" stroke="white"/>
<path opacity="0.1" d="M200.321 541.009C192.564 484.896 200.881 427.733 224.304 376.156C247.728 324.579 285.298 280.702 332.655 249.618C380.012 218.535 435.213 201.518 491.851 200.544C548.489 199.57 604.243 214.679 652.64 244.116C701.037 273.554 740.094 316.113 765.277 366.854C790.46 417.596 800.736 474.439 794.914 530.785C789.091 587.132 767.408 640.672 732.381 685.192C697.354 729.711 650.42 763.385 597.026 782.303" stroke="white"/>
<path opacity="0.1" d="M688.654 658.539C654.276 700.314 607.251 729.783 554.666 742.505C502.081 755.226 446.786 750.51 397.115 729.068C347.444 707.626 306.088 670.619 279.281 623.625C252.474 576.632 241.669 522.198 248.493 468.529" stroke="white"/>
<path opacity="0.1" d="M692.508 534.424C687.987 560.23 678.428 584.893 664.376 607.004C650.324 629.115 632.054 648.243 610.61 663.293C589.166 678.344 564.968 689.024 539.396 694.723C513.825 700.422 487.382 701.028 461.576 696.508C435.77 691.987 411.107 682.428 388.996 668.376C366.885 654.324 347.757 636.054 332.707 614.61C317.656 593.166 306.976 568.968 301.277 543.396C295.578 517.825 294.972 491.382 299.492 465.576C304.013 439.77 313.572 415.107 327.624 392.996C341.676 370.885 359.946 351.757 381.39 336.707C402.834 321.656 427.032 310.976 452.604 305.277C478.175 299.578 504.618 298.972 530.424 303.492C556.23 308.013 580.893 317.572 603.004 331.624C625.115 345.676 644.243 363.946 659.293 385.39C674.344 406.834 685.024 431.032 690.723 456.604C696.422 482.175 697.028 508.618 692.508 534.424L692.508 534.424Z" stroke="white"/>
<path opacity="0.1" d="M355.004 540.419C347.878 512.05 349.231 482.215 358.895 454.608C368.558 427.001 386.108 402.835 409.37 385.103C432.632 367.371 460.585 356.853 489.766 354.851C518.947 352.848 548.074 359.45 573.54 373.838C599.006 388.226 619.692 409.769 633.036 435.797C646.38 461.826 651.795 491.197 648.612 520.273C645.428 549.348 633.785 576.852 615.125 599.376C596.465 621.9 571.607 638.455 543.631 646.992" stroke="white"/>
<path opacity="0.1" d="M401.561 468.669C406.651 453.328 415.401 439.458 427.055 428.258C438.71 417.058 452.917 408.866 468.448 404.391C483.98 399.915 500.368 399.29 516.195 402.571C532.022 405.852 546.811 412.938 559.284 423.219C571.757 433.499 581.538 446.663 587.78 461.573C594.022 476.482 596.539 492.688 595.111 508.788C593.684 524.888 588.355 540.398 579.587 553.977C570.819 567.555 558.874 578.793 544.787 586.718" stroke="white"/>
<path opacity="0.1" d="M449.018 488.413C453.152 475.953 462.066 465.645 473.8 459.757C485.534 453.87 499.126 452.884 511.587 457.018C524.047 461.152 534.355 470.066 540.243 481.8C546.13 493.534 547.116 507.126 542.982 519.587C538.848 532.047 529.934 542.355 518.2 548.243C506.466 554.13 492.874 555.116 480.413 550.982C467.953 546.848 457.645 537.934 451.757 526.2C445.87 514.466 444.884 500.874 449.018 488.413L449.018 488.413Z" stroke="white"/>
</svg>
