<svg width="14" height="24" viewBox="0 0 14 24" fill="none" xmlns="http://www.w3.org/2000/svg">
<g clip-path="url(#clip0_434_1828)">
<path d="M13.0625 0.625C13.375 0.9375 13.5313 1.3075 13.5313 1.735C13.5313 2.1625 13.375 2.53208 13.0625 2.84375L3.90625 12L13.0938 21.1875C13.3854 21.4792 13.5313 21.8438 13.5313 22.2812C13.5313 22.7187 13.375 23.0937 13.0625 23.4062C12.75 23.7187 12.38 23.875 11.9525 23.875C11.525 23.875 11.1554 23.7187 10.8438 23.4062L0.343749 12.875C0.218749 12.75 0.13 12.6146 0.0775004 12.4687C0.0250006 12.3229 -0.000833441 12.1667 8.44712e-08 12C9.90416e-08 11.8333 0.02625 11.6771 0.0787498 11.5312C0.13125 11.3854 0.219583 11.25 0.343749 11.125L10.875 0.59375C11.1667 0.302084 11.5263 0.15625 11.9538 0.15625C12.3813 0.15625 12.7508 0.3125 13.0625 0.625Z" fill="white"/>
</g>
<defs>
<clipPath id="clip0_434_1828">
<rect width="14" height="24" fill="white" transform="translate(14 24) rotate(-180)"/>
</clipPath>
</defs>
</svg>
