<svg width="14" height="24" viewBox="0 0 14 24" fill="none" xmlns="http://www.w3.org/2000/svg">
<path d="M0.9375 23.375C0.625 23.0625 0.46875 22.6925 0.46875 22.265C0.46875 21.8375 0.625 21.4679 0.9375 21.1562L10.0938 12L0.90625 2.8125C0.614583 2.52083 0.46875 2.15625 0.46875 1.71875C0.46875 1.28125 0.625 0.90625 0.9375 0.59375C1.25 0.28125 1.62 0.125 2.0475 0.125C2.475 0.125 2.84458 0.28125 3.15625 0.59375L13.6563 11.125C13.7813 11.25 13.87 11.3854 13.9225 11.5312C13.975 11.6771 14.0008 11.8333 14 12C14 12.1667 13.9738 12.3229 13.9213 12.4687C13.8688 12.6146 13.7804 12.75 13.6563 12.875L3.125 23.4062C2.83333 23.6979 2.47375 23.8438 2.04625 23.8438C1.61875 23.8438 1.24917 23.6875 0.9375 23.375Z" fill="white"/>
</svg>
