<svg width="30" height="25" viewBox="0 0 30 25" fill="none" xmlns="http://www.w3.org/2000/svg">
<g clip-path="url(#clip0_453_1894)">
<path d="M26.6651 0.617645C26.6651 0.617645 29.2666 -0.411567 29.049 2.08775C28.9773 3.11697 28.3271 6.71955 27.8209 10.6156L26.0865 22.1577C26.0865 22.1577 25.9419 23.8486 24.6407 24.1428C23.3403 24.4363 21.389 23.1136 21.0273 22.8194C20.7381 22.5986 15.6073 19.2902 13.8006 17.6734C13.2943 17.2318 12.7157 16.35 13.8729 15.3208L21.4606 7.96887C22.3278 7.08707 23.195 5.02865 19.5816 7.52797L9.46328 14.5117C9.46328 14.5117 8.30681 15.2474 6.13918 14.5857L1.44096 13.1149C1.44096 13.1149 -0.293414 12.0123 2.66976 10.9098C9.89721 7.4546 18.7867 3.92607 26.6637 0.617645H26.6651Z" fill="white"/>
</g>
<defs>
<clipPath id="clip0_453_1894">
<rect width="30" height="25" fill="white"/>
</clipPath>
</defs>
</svg>
