<svg width="32" height="24" viewBox="0 0 32 24" fill="none" xmlns="http://www.w3.org/2000/svg">
<g clip-path="url(#clip0_453_1892)">
<path d="M31.7904 5.41492C31.7904 2.65091 29.7216 0.427415 27.1654 0.427415C23.7029 0.268331 20.1716 0.206909 16.5629 0.206909H15.4379C11.8379 0.206909 8.30038 0.268332 4.83788 0.42803C2.28788 0.42803 0.21913 2.66381 0.21913 5.42781C0.0628801 7.61384 -0.00336993 9.80048 0.000380068 11.9871C-0.00586993 14.1738 0.0649634 16.3624 0.21288 18.5532C0.21288 21.3172 2.28163 23.5591 4.83163 23.5591C8.46913 23.7249 12.2004 23.7986 15.9941 23.7925C19.7941 23.8048 23.515 23.727 27.1566 23.5591C29.7129 23.5591 31.7816 21.3172 31.7816 18.5532C31.9316 16.3604 32.0004 14.1738 31.9941 11.981C32.0083 9.79433 31.9404 7.60565 31.7904 5.41492ZM12.9379 18.0127V5.94315L22.0004 11.9748L12.9379 18.0127Z" fill="white"/>
</g>
<defs>
<clipPath id="clip0_453_1892">
<rect width="32" height="24" fill="white"/>
</clipPath>
</defs>
</svg>
