<svg width="31" height="24" viewBox="0 0 31 24" fill="none" xmlns="http://www.w3.org/2000/svg">
<g clip-path="url(#clip0_453_1898)">
<path d="M30.2389 2.82365C29.1539 3.31777 27.9844 3.64248 26.7726 3.79777C28.0126 3.04953 28.9707 1.86365 29.4217 0.437769C28.2521 1.14365 26.9557 1.63777 25.5889 1.92012C24.4757 0.706005 22.9117 0.00012207 21.1362 0.00012207C17.8248 0.00012207 15.1194 2.71071 15.1194 6.05659C15.1194 6.53659 15.1757 7.00248 15.2744 7.44012C10.258 7.18601 5.7912 4.77189 2.81802 1.11542C2.29665 2.00483 2.00074 3.04953 2.00074 4.15071C2.00074 6.25424 3.05756 8.11777 4.69211 9.17659C3.69165 9.17659 2.76165 8.89424 1.94438 8.47071V8.51306C1.94438 11.4495 4.02983 13.906 6.79165 14.4566C5.90495 14.6997 4.97406 14.7335 4.07211 14.5554C4.45482 15.7589 5.20436 16.812 6.21536 17.5666C7.22635 18.3212 8.44796 18.7395 9.70847 18.7625C7.57177 20.4572 4.92319 21.3733 2.19801 21.3601C1.71892 21.3601 1.23983 21.3319 0.760742 21.2754C3.43801 22.9978 6.62256 24.0001 10.0326 24.0001C21.1362 24.0001 27.2376 14.7672 27.2376 6.76248C27.2376 6.49424 27.2376 6.24012 27.2235 5.97189C28.4071 5.12483 29.4216 4.05189 30.2389 2.82365Z" fill="white"/>
</g>
<defs>
<clipPath id="clip0_453_1898">
<rect width="31" height="24" fill="white"/>
</clipPath>
</defs>
</svg>
