<svg width="26" height="26" viewBox="0 0 26 26" fill="none" xmlns="http://www.w3.org/2000/svg">
<g clip-path="url(#clip0_453_1900)">
<path d="M18.625 0.812622H7.375C5.63509 0.814483 3.96697 1.50649 2.73667 2.73679C1.50636 3.96709 0.814361 5.63521 0.8125 7.37512V18.6251C0.814361 20.365 1.50636 22.0332 2.73667 23.2635C3.96697 24.4938 5.63509 25.1858 7.375 25.1876H18.625C20.3649 25.1858 22.033 24.4938 23.2633 23.2635C24.4936 22.0332 25.1856 20.365 25.1875 18.6251V7.37512C25.1856 5.63521 24.4936 3.96709 23.2633 2.73679C22.033 1.50649 20.3649 0.814483 18.625 0.812622ZM13 18.6251C11.8875 18.6251 10.7999 18.2952 9.87492 17.6771C8.94989 17.0591 8.22892 16.1806 7.80318 15.1527C7.37744 14.1249 7.26604 12.9939 7.48308 11.9027C7.70013 10.8116 8.23585 9.80932 9.02252 9.02265C9.80919 8.23598 10.8115 7.70025 11.9026 7.48321C12.9938 7.26616 14.1248 7.37756 15.1526 7.8033C16.1804 8.22904 17.0589 8.95001 17.677 9.87504C18.2951 10.8001 18.625 11.8876 18.625 13.0001C18.6234 14.4915 18.0303 15.9213 16.9758 16.9759C15.9212 18.0304 14.4914 18.6236 13 18.6251ZM20.0312 7.37512C19.7531 7.37512 19.4812 7.29265 19.25 7.13813C19.0187 6.98361 18.8385 6.76398 18.732 6.50702C18.6256 6.25006 18.5978 5.96731 18.652 5.69453C18.7063 5.42174 18.8402 5.17117 19.0369 4.9745C19.2335 4.77784 19.4841 4.6439 19.7569 4.58964C20.0297 4.53538 20.3124 4.56323 20.5694 4.66967C20.8264 4.7761 21.046 4.95634 21.2005 5.1876C21.355 5.41886 21.4375 5.69074 21.4375 5.96887C21.4375 6.34183 21.2893 6.69952 21.0256 6.96324C20.7619 7.22696 20.4042 7.37512 20.0312 7.37512ZM16.75 13.0001C16.75 13.7418 16.5301 14.4668 16.118 15.0835C15.706 15.7002 15.1203 16.1808 14.4351 16.4647C13.7498 16.7485 12.9958 16.8228 12.2684 16.6781C11.541 16.5334 10.8728 16.1762 10.3483 15.6518C9.8239 15.1273 9.46675 14.4591 9.32205 13.7317C9.17736 13.0043 9.25162 12.2503 9.53545 11.5651C9.81928 10.8798 10.2999 10.2942 10.9166 9.88211C11.5333 9.47006 12.2583 9.25012 13 9.25012C13.9946 9.25012 14.9484 9.64521 15.6516 10.3485C16.3549 11.0517 16.75 12.0056 16.75 13.0001Z" fill="white"/>
</g>
<defs>
<clipPath id="clip0_453_1900">
<rect width="26" height="26" fill="white"/>
</clipPath>
</defs>
</svg>
