<svg width="50" height="34" viewBox="0 0 50 34" fill="none" xmlns="http://www.w3.org/2000/svg">
<g clip-path="url(#clip0_1_242)">
<path fill-rule="evenodd" clip-rule="evenodd" d="M1.30206 10.4943C0.00739798 13.6007 -0.331346 17.0188 0.328716 20.3166C0.988699 23.6142 2.61785 26.6434 5.01003 29.0208C7.4022 31.3983 10.4501 33.0174 13.7681 33.6734C17.0864 34.3293 20.5256 33.9926 23.6512 32.7059C26.7767 31.4193 29.4482 29.2402 31.3278 26.4447C31.3779 26.3702 31.4274 26.2952 31.4762 26.2199C31.5107 26.1669 31.545 26.1135 31.579 26.0599V34H32.8947C36.2779 34 39.585 33.0029 42.3979 31.1349C45.2109 29.2671 47.4033 26.6119 48.6979 23.5055C49.9926 20.3993 50.3314 16.9812 49.6712 13.6834C49.0112 10.3858 47.3823 7.35665 44.99 4.9792C42.5978 2.60167 39.5499 0.982615 36.2319 0.326693C32.9136 -0.329308 29.4744 0.00735308 26.3488 1.29405C23.2233 2.58076 20.5518 4.75971 18.6723 7.55531C18.5868 7.68254 18.503 7.81088 18.421 7.94011V1.01363e-05H17.1053C13.7221 1.01363e-05 10.415 0.997061 7.6021 2.86506C4.78918 4.73297 2.59674 7.38802 1.30206 10.4943ZM15.7895 17V2.67494C13.3913 2.89251 11.078 3.70232 9.06413 5.03961C6.68392 6.6202 4.82885 8.86684 3.73335 11.4952C2.63785 14.1237 2.35122 17.0159 2.9097 19.8063C3.46817 22.5966 4.84669 25.1598 6.8708 27.1715C8.895 29.1832 11.474 30.5531 14.2816 31.1082C17.0892 31.6632 19.9994 31.3784 22.6441 30.2896C25.1826 29.2446 27.3671 27.5041 28.9449 25.2741C27.7491 25.8383 26.4116 26.1539 25 26.1539C19.9132 26.1539 15.7895 22.0554 15.7895 17ZM34.2105 31.3251V17C34.2105 11.9445 30.0868 7.84616 25 7.84616C23.5884 7.84616 22.2509 8.16175 21.0551 8.72588C22.6329 6.49593 24.8174 4.75531 27.3559 3.71037C30.0006 2.62162 32.9107 2.33676 35.7184 2.8918C38.526 3.44682 41.105 4.81685 43.1292 6.82851C45.1534 8.84026 46.5319 11.4034 47.0902 14.1937C47.6488 16.9841 47.3621 19.8763 46.2666 22.5047C45.1713 25.1332 43.3161 27.3798 40.9359 28.9604C38.922 30.2976 36.6087 31.1075 34.2105 31.3251ZM24.8684 23.5372C21.3394 23.4684 18.4916 20.638 18.4224 17.1308H20.9114C22.8749 17.5756 24.4206 19.1116 24.8684 21.0631V23.5372ZM25.1315 23.5372C28.6605 23.4684 31.5084 20.638 31.5776 17.1308H29.0886C27.1249 17.5756 25.5791 19.1119 25.1315 21.0636V23.5372ZM31.5776 16.8692C31.5084 13.362 28.6605 10.5316 25.1315 10.4628V12.9364C25.5791 14.888 27.1248 16.4243 29.0882 16.8692H31.5776ZM24.8684 10.4628C21.3395 10.5316 18.4916 13.362 18.4224 16.8692H20.9118C22.8751 16.4243 24.4207 14.8882 24.8684 12.9369V10.4628Z" fill="#5F15FE"/>
</g>
<defs>
<clipPath id="clip0_1_242">
<rect width="50" height="34" fill="white"/>
</clipPath>
</defs>
</svg>
